<svg version="1.1" xmlns="http://www.w3.org/2000/svg" xmlns:xlink="http://www.w3.org/1999/xlink" width="1724" height="900"><defs/><g><g transform="translate(-6,-62) scale(1,1)"><rect fill="#C0C0C0" stroke="none" x="103" y="79" width="1624" height="880" opacity="0.2"/></g><g transform="translate(-6,-62) scale(1,1)"><rect fill="#ffffff" stroke="none" x="96" y="72" width="1624" height="880"/></g><g transform="translate(-6,-62) scale(1,1)"><path fill="none" stroke="#000000" d="M 96 72 L 1720 72 L 1720 952 L 96 952 L 96 72 Z Z" stroke-miterlimit="10"/></g><g transform="translate(-6,-62) scale(1,1)"><g><path fill="none" stroke="none"/><text fill="#000000" stroke="none" font-family="Arial" font-size="13px" font-style="normal" font-weight="bold" text-decoration="none" x="803.23193359375" y="90">Exercices et programmes sportifs</text></g></g><g transform="translate(-6,-62) scale(1,1)"><path fill="#ffffff" stroke="none" d="M 42.301764026988636 516.05 C 42.301764026988636 505.52897455999994 50.57716897826136 497 60.785400390625 497 C 70.99363180298863 497 79.26903675426136 505.52897455999994 79.26903675426136 516.05 C 79.26903675426136 526.57102544 70.99363180298863 535.1 60.785400390625 535.1 C 50.57716897826136 535.1 42.301764026988636 526.57102544 42.301764026988636 516.05 Z"/></g><g transform="translate(-6,-62) scale(1,1)"><path fill="none" stroke="#000000" d="M 42.301764026988636 516.05 C 42.301764026988636 505.52897455999994 50.57716897826136 497 60.785400390625 497 C 70.99363180298863 497 79.26903675426136 505.52897455999994 79.26903675426136 516.05 C 79.26903675426136 526.57102544 70.99363180298863 535.1 60.785400390625 535.1 C 50.57716897826136 535.1 42.301764026988636 526.57102544 42.301764026988636 516.05 Z" stroke-miterlimit="10"/></g><g transform="translate(-6,-62) scale(1,1)"><path fill="none" stroke="#000000" d="M 60.785400390625 535.1 L 60.785400390625 571.9" stroke-miterlimit="10"/></g><g transform="translate(-6,-62) scale(1,1)"><path fill="none" stroke="#000000" d="M 41.2144912997159 548.9 L 80.3563094815341 548.9" stroke-miterlimit="10"/></g><g transform="translate(-6,-62) scale(1,1)"><path fill="none" stroke="#000000" d="M 60.785400390625 571.9 L 33.60358220880681 610" stroke-miterlimit="10"/></g><g transform="translate(-6,-62) scale(1,1)"><path fill="none" stroke="#000000" d="M 60.785400390625 571.9 L 87.96721857244319 610" stroke-miterlimit="10"/></g><g transform="translate(-6,-62) scale(1,1)"><g><path fill="none" stroke="none"/><text fill="#000000" stroke="none" font-family="Arial" font-size="13px" font-style="normal" font-weight="bold" text-decoration="none" x="28.99951171875" y="629">Utilisateur</text></g></g><g transform="translate(-6,-62) scale(1,1)"><path fill="#C0C0C0" stroke="none" d="M 143 730 C 143 707.908608 207.69484640000002 690 287.5 690 C 367.3051536 690 432 707.908608 432 730 C 432 752.091392 367.3051536 770 287.5 770 C 207.69484640000002 770 143 752.091392 143 730 Z" opacity="0.2"/></g><g transform="translate(-6,-62) scale(1,1)"><path fill="#ffffff" stroke="none" d="M 136 723 C 136 700.908608 200.69484640000002 683 280.5 683 C 360.3051536 683 425 700.908608 425 723 C 425 745.091392 360.3051536 763 280.5 763 C 200.69484640000002 763 136 745.091392 136 723 Z"/></g><g transform="translate(-6,-62) scale(1,1)"><path fill="none" stroke="#000000" d="M 136 723 C 136 700.908608 200.69484640000002 683 280.5 683 C 360.3051536 683 425 700.908608 425 723 C 425 745.091392 360.3051536 763 280.5 763 C 200.69484640000002 763 136 745.091392 136 723 Z" stroke-miterlimit="10"/></g><g transform="translate(-6,-62) scale(1,1)"><g><path fill="none" stroke="none"/><text fill="#000000" stroke="none" font-family="Arial" font-size="13px" font-style="normal" font-weight="bold" text-decoration="none" x="212.224609375" y="728.5">Suivre sa progression</text></g></g><g transform="translate(-6,-62) scale(1,1)"><path fill="#C0C0C0" stroke="none" d="M 143 376 C 143 353.908608 207.69484640000002 336 287.5 336 C 367.3051536 336 432 353.908608 432 376 C 432 398.091392 367.3051536 416 287.5 416 C 207.69484640000002 416 143 398.091392 143 376 Z" opacity="0.2"/></g><g transform="translate(-6,-62) scale(1,1)"><path fill="#ffffff" stroke="none" d="M 136 369 C 136 346.908608 200.69484640000002 329 280.5 329 C 360.3051536 329 425 346.908608 425 369 C 425 391.091392 360.3051536 409 280.5 409 C 200.69484640000002 409 136 391.091392 136 369 Z"/></g><g transform="translate(-6,-62) scale(1,1)"><path fill="none" stroke="#000000" d="M 136 369 C 136 346.908608 200.69484640000002 329 280.5 329 C 360.3051536 329 425 346.908608 425 369 C 425 391.091392 360.3051536 409 280.5 409 C 200.69484640000002 409 136 391.091392 136 369 Z" stroke-miterlimit="10"/></g><g transform="translate(-6,-62) scale(1,1)"><g><path fill="none" stroke="none"/><text fill="#000000" stroke="none" font-family="Arial" font-size="13px" font-style="normal" font-weight="bold" text-decoration="none" x="199.123046875" y="374.5">Recherche d'entrainement</text></g></g><g transform="translate(-6,-62) scale(1,1)"><path fill="#C0C0C0" stroke="none" d="M 143 553 C 143 530.908608 207.69484640000002 513 287.5 513 C 367.3051536 513 432 530.908608 432 553 C 432 575.091392 367.3051536 593 287.5 593 C 207.69484640000002 593 143 575.091392 143 553 Z" opacity="0.2"/></g><g transform="translate(-6,-62) scale(1,1)"><path fill="#ffffff" stroke="none" d="M 136 546 C 136 523.908608 200.69484640000002 506 280.5 506 C 360.3051536 506 425 523.908608 425 546 C 425 568.091392 360.3051536 586 280.5 586 C 200.69484640000002 586 136 568.091392 136 546 Z"/></g><g transform="translate(-6,-62) scale(1,1)"><path fill="none" stroke="#000000" d="M 136 546 C 136 523.908608 200.69484640000002 506 280.5 506 C 360.3051536 506 425 523.908608 425 546 C 425 568.091392 360.3051536 586 280.5 586 C 200.69484640000002 586 136 568.091392 136 546 Z" stroke-miterlimit="10"/></g><g transform="translate(-6,-62) scale(1,1)"><g><path fill="none" stroke="none"/><text fill="#000000" stroke="none" font-family="Arial" font-size="13px" font-style="normal" font-weight="bold" text-decoration="none" x="210.298095703125" y="551.5">Recherche d'exercices</text></g></g><g transform="translate(-6,-62) scale(1,1)"><path fill="#C0C0C0" stroke="none" d="M 143 199 C 143 176.90860800000002 207.69484640000002 159 287.5 159 C 367.3051536 159 432 176.90860800000002 432 199 C 432 221.09139199999998 367.3051536 239 287.5 239 C 207.69484640000002 239 143 221.09139199999998 143 199 Z" opacity="0.2"/></g><g transform="translate(-6,-62) scale(1,1)"><path fill="#ffffff" stroke="none" d="M 136 192 C 136 169.90860800000002 200.69484640000002 152 280.5 152 C 360.3051536 152 425 169.90860800000002 425 192 C 425 214.09139199999998 360.3051536 232 280.5 232 C 200.69484640000002 232 136 214.09139199999998 136 192 Z"/></g><g transform="translate(-6,-62) scale(1,1)"><path fill="none" stroke="#000000" d="M 136 192 C 136 169.90860800000002 200.69484640000002 152 280.5 152 C 360.3051536 152 425 169.90860800000002 425 192 C 425 214.09139199999998 360.3051536 232 280.5 232 C 200.69484640000002 232 136 214.09139199999998 136 192 Z" stroke-miterlimit="10"/></g><g transform="translate(-6,-62) scale(1,1)"><g><path fill="none" stroke="none"/><text fill="#000000" stroke="none" font-family="Arial" font-size="13px" font-style="normal" font-weight="bold" text-decoration="none" x="222.333251953125" y="197.5">Premier lancement</text></g></g><g transform="translate(-6,-62) scale(1,1)"><path fill="#C0C0C0" stroke="none" d="M 143 907 C 143 884.908608 207.69484640000002 867 287.5 867 C 367.3051536 867 432 884.908608 432 907 C 432 929.091392 367.3051536 947 287.5 947 C 207.69484640000002 947 143 929.091392 143 907 Z" opacity="0.2"/></g><g transform="translate(-6,-62) scale(1,1)"><path fill="#ffffff" stroke="none" d="M 136 900 C 136 877.908608 200.69484640000002 860 280.5 860 C 360.3051536 860 425 877.908608 425 900 C 425 922.091392 360.3051536 940 280.5 940 C 200.69484640000002 940 136 922.091392 136 900 Z"/></g><g transform="translate(-6,-62) scale(1,1)"><path fill="none" stroke="#000000" d="M 136 900 C 136 877.908608 200.69484640000002 860 280.5 860 C 360.3051536 860 425 877.908608 425 900 C 425 922.091392 360.3051536 940 280.5 940 C 200.69484640000002 940 136 922.091392 136 900 Z" stroke-miterlimit="10"/></g><g transform="translate(-6,-62) scale(1,1)"><g><path fill="none" stroke="none"/><text fill="#000000" stroke="none" font-family="Arial" font-size="13px" font-style="normal" font-weight="bold" text-decoration="none" x="216.201416015625" y="905.5">Consulter les favoris</text></g></g><g transform="translate(-6,-62) scale(1,1)"><path fill="#C0C0C0" stroke="none" d="M 535 186.5 C 535 166.8938896 607.75372 151 697.5 151 C 787.24628 151 860 166.8938896 860 186.5 C 860 206.1061104 787.24628 222 697.5 222 C 607.75372 222 535 206.1061104 535 186.5 Z" opacity="0.2"/></g><g transform="translate(-6,-62) scale(1,1)"><path fill="#ffffff" stroke="none" d="M 528 179.5 C 528 159.8938896 600.75372 144 690.5 144 C 780.24628 144 853 159.8938896 853 179.5 C 853 199.1061104 780.24628 215 690.5 215 C 600.75372 215 528 199.1061104 528 179.5 Z"/></g><g transform="translate(-6,-62) scale(1,1)"><path fill="none" stroke="#000000" d="M 528 179.5 C 528 159.8938896 600.75372 144 690.5 144 C 780.24628 144 853 159.8938896 853 179.5 C 853 199.1061104 780.24628 215 690.5 215 C 600.75372 215 528 199.1061104 528 179.5 Z" stroke-miterlimit="10"/></g><g transform="translate(-6,-62) scale(1,1)"><g><path fill="none" stroke="none"/><text fill="#000000" stroke="none" font-family="Arial" font-size="13px" font-style="normal" font-weight="bold" text-decoration="none" x="579.971435546875" y="185">Informations personnelles à remplir</text></g></g><g transform="translate(-6,-62) scale(1,1)"><path fill="none" stroke="#000000" d="M 426 187 L 527 184" stroke-miterlimit="10" stroke-dasharray="3"/></g><g transform="translate(-6,-62) scale(1,1)"><path fill="none" stroke="#000000" d="M 516.9667853317696 188.50939058201953 L 527 184 L 516.7168252114292 180.0940665305587" stroke-miterlimit="10"/></g><g transform="translate(-6,-62) scale(1,1)"><g><path fill="none" stroke="none"/><text fill="#000000" stroke="none" font-family="Arial" font-size="13px" font-style="normal" font-weight="normal" text-decoration="none" x="447.5" y="160">«include»</text></g></g><g transform="translate(-6,-62) scale(1,1)"><path fill="#C0C0C0" stroke="none" d="M 511 264 C 511 245.7746016 552.1897984 231 603 231 C 653.8102016 231 695 245.7746016 695 264 C 695 282.2253984 653.8102016 297 603 297 C 552.1897984 297 511 282.2253984 511 264 Z" opacity="0.2"/></g><g transform="translate(-6,-62) scale(1,1)"><path fill="#ffffff" stroke="none" d="M 504 257 C 504 238.7746016 545.1897984 224 596 224 C 646.8102016 224 688 238.7746016 688 257 C 688 275.2253984 646.8102016 290 596 290 C 545.1897984 290 504 275.2253984 504 257 Z"/></g><g transform="translate(-6,-62) scale(1,1)"><path fill="none" stroke="#000000" d="M 504 257 C 504 238.7746016 545.1897984 224 596 224 C 646.8102016 224 688 238.7746016 688 257 C 688 275.2253984 646.8102016 290 596 290 C 545.1897984 290 504 275.2253984 504 257 Z" stroke-miterlimit="10"/></g><g transform="translate(-6,-62) scale(1,1)"><g><path fill="none" stroke="none"/><text fill="#000000" stroke="none" font-family="Arial" font-size="13px" font-style="normal" font-weight="bold" text-decoration="none" x="569.9873046875" y="262.5">Trier par</text></g></g><g transform="translate(-6,-62) scale(1,1)"><path fill="none" stroke="#000000" d="M 102 495 L 256 233" stroke-miterlimit="10"/></g><g transform="translate(-6,-62) scale(1,1)"><path fill="none" stroke="#000000" d="M 107 524 L 234 410" stroke-miterlimit="10"/></g><g transform="translate(-6,-62) scale(1,1)"><path fill="none" stroke="#000000" d="M 107 562 L 135 559" stroke-miterlimit="10"/></g><g transform="translate(-6,-62) scale(1,1)"><path fill="none" stroke="#000000" d="M 107 599 L 223 682" stroke-miterlimit="10"/></g><g transform="translate(-6,-62) scale(1,1)"><path fill="#C0C0C0" stroke="none" d="M 511 344 C 511 325.7746016 552.1897984 311 603 311 C 653.8102016 311 695 325.7746016 695 344 C 695 362.2253984 653.8102016 377 603 377 C 552.1897984 377 511 362.2253984 511 344 Z" opacity="0.2"/></g><g transform="translate(-6,-62) scale(1,1)"><path fill="#ffffff" stroke="none" d="M 504 337 C 504 318.7746016 545.1897984 304 596 304 C 646.8102016 304 688 318.7746016 688 337 C 688 355.2253984 646.8102016 370 596 370 C 545.1897984 370 504 355.2253984 504 337 Z"/></g><g transform="translate(-6,-62) scale(1,1)"><path fill="none" stroke="#000000" d="M 504 337 C 504 318.7746016 545.1897984 304 596 304 C 646.8102016 304 688 318.7746016 688 337 C 688 355.2253984 646.8102016 370 596 370 C 545.1897984 370 504 355.2253984 504 337 Z" stroke-miterlimit="10"/></g><g transform="translate(-6,-62) scale(1,1)"><g><path fill="none" stroke="none"/><text fill="#000000" stroke="none" font-family="Arial" font-size="13px" font-style="normal" font-weight="bold" text-decoration="none" x="560.23095703125" y="342.5">Rechercher</text></g></g><g transform="translate(-6,-62) scale(1,1)"><path fill="#C0C0C0" stroke="none" d="M 519 611 C 519 593.3268864 556.6080768 579 603 579 C 649.3919232 579 687 593.3268864 687 611 C 687 628.6731136 649.3919232 643 603 643 C 556.6080768 643 519 628.6731136 519 611 Z" opacity="0.2"/></g><g transform="translate(-6,-62) scale(1,1)"><path fill="#ffffff" stroke="none" d="M 512 604 C 512 586.3268864 549.6080768 572 596 572 C 642.3919232 572 680 586.3268864 680 604 C 680 621.6731136 642.3919232 636 596 636 C 549.6080768 636 512 621.6731136 512 604 Z"/></g><g transform="translate(-6,-62) scale(1,1)"><path fill="none" stroke="#000000" d="M 512 604 C 512 586.3268864 549.6080768 572 596 572 C 642.3919232 572 680 586.3268864 680 604 C 680 621.6731136 642.3919232 636 596 636 C 549.6080768 636 512 621.6731136 512 604 Z" stroke-miterlimit="10"/></g><g transform="translate(-6,-62) scale(1,1)"><g><path fill="none" stroke="none"/><text fill="#000000" stroke="none" font-family="Arial" font-size="13px" font-style="normal" font-weight="bold" text-decoration="none" x="569.9873046875" y="609.5">Trier par</text></g></g><g transform="translate(-6,-62) scale(1,1)"><path fill="#C0C0C0" stroke="none" d="M 519 535 C 519 517.3268864 556.6080768 503 603 503 C 649.3919232 503 687 517.3268864 687 535 C 687 552.6731136 649.3919232 567 603 567 C 556.6080768 567 519 552.6731136 519 535 Z" opacity="0.2"/></g><g transform="translate(-6,-62) scale(1,1)"><path fill="#ffffff" stroke="none" d="M 512 528 C 512 510.3268864 549.6080768 496 596 496 C 642.3919232 496 680 510.3268864 680 528 C 680 545.6731136 642.3919232 560 596 560 C 549.6080768 560 512 545.6731136 512 528 Z"/></g><g transform="translate(-6,-62) scale(1,1)"><path fill="none" stroke="#000000" d="M 512 528 C 512 510.3268864 549.6080768 496 596 496 C 642.3919232 496 680 510.3268864 680 528 C 680 545.6731136 642.3919232 560 596 560 C 549.6080768 560 512 545.6731136 512 528 Z" stroke-miterlimit="10"/></g><g transform="translate(-6,-62) scale(1,1)"><g><path fill="none" stroke="none"/><text fill="#000000" stroke="none" font-family="Arial" font-size="13px" font-style="normal" font-weight="bold" text-decoration="none" x="560.23095703125" y="533.5">Rechercher</text></g></g><g transform="translate(-6,-62) scale(1,1)"><path fill="#C0C0C0" stroke="none" d="M 519 687 C 519 669.3268864 557.7273648 655 605.5 655 C 653.2726352 655 692 669.3268864 692 687 C 692 704.6731136 653.2726352 719 605.5 719 C 557.7273648 719 519 704.6731136 519 687 Z" opacity="0.2"/></g><g transform="translate(-6,-62) scale(1,1)"><path fill="#ffffff" stroke="none" d="M 512 680 C 512 662.3268864 550.7273648 648 598.5 648 C 646.2726352 648 685 662.3268864 685 680 C 685 697.6731136 646.2726352 712 598.5 712 C 550.7273648 712 512 697.6731136 512 680 Z"/></g><g transform="translate(-6,-62) scale(1,1)"><path fill="none" stroke="#000000" d="M 512 680 C 512 662.3268864 550.7273648 648 598.5 648 C 646.2726352 648 685 662.3268864 685 680 C 685 697.6731136 646.2726352 712 598.5 712 C 550.7273648 712 512 697.6731136 512 680 Z" stroke-miterlimit="10"/></g><g transform="translate(-6,-62) scale(1,1)"><g><path fill="none" stroke="none"/><text fill="#000000" stroke="none" font-family="Arial" font-size="13px" font-style="normal" font-weight="bold" text-decoration="none" x="541.77099609375" y="685.5">Sélection exercice</text></g></g><g transform="translate(-6,-62) scale(1,1)"><path fill="#C0C0C0" stroke="none" d="M 511 424 C 511 405.7746016 559.129384 391 618.5 391 C 677.870616 391 726 405.7746016 726 424 C 726 442.2253984 677.870616 457 618.5 457 C 559.129384 457 511 442.2253984 511 424 Z" opacity="0.2"/></g><g transform="translate(-6,-62) scale(1,1)"><path fill="#ffffff" stroke="none" d="M 504 417 C 504 398.7746016 552.129384 384 611.5 384 C 670.870616 384 719 398.7746016 719 417 C 719 435.2253984 670.870616 450 611.5 450 C 552.129384 450 504 435.2253984 504 417 Z"/></g><g transform="translate(-6,-62) scale(1,1)"><path fill="none" stroke="#000000" d="M 504 417 C 504 398.7746016 552.129384 384 611.5 384 C 670.870616 384 719 398.7746016 719 417 C 719 435.2253984 670.870616 450 611.5 450 C 552.129384 450 504 435.2253984 504 417 Z" stroke-miterlimit="10"/></g><g transform="translate(-6,-62) scale(1,1)"><g><path fill="none" stroke="none"/><text fill="#000000" stroke="none" font-family="Arial" font-size="13px" font-style="normal" font-weight="bold" text-decoration="none" x="539.98095703125" y="422.5">Sélection entrainement</text></g></g><g transform="translate(-6,-62) scale(1,1)"><path fill="#C0C0C0" stroke="none" d="M 479 854.5 C 479 837.1030288 532.2781088 823 598 823 C 663.7218912 823 717 837.1030288 717 854.5 C 717 871.8969712 663.7218912 886 598 886 C 532.2781088 886 479 871.8969712 479 854.5 Z" opacity="0.2"/></g><g transform="translate(-6,-62) scale(1,1)"><path fill="#ffffff" stroke="none" d="M 472 847.5 C 472 830.1030288 525.2781088 816 591 816 C 656.7218912 816 710 830.1030288 710 847.5 C 710 864.8969712 656.7218912 879 591 879 C 525.2781088 879 472 864.8969712 472 847.5 Z"/></g><g transform="translate(-6,-62) scale(1,1)"><path fill="none" stroke="#000000" d="M 472 847.5 C 472 830.1030288 525.2781088 816 591 816 C 656.7218912 816 710 830.1030288 710 847.5 C 710 864.8969712 656.7218912 879 591 879 C 525.2781088 879 472 864.8969712 472 847.5 Z" stroke-miterlimit="10"/></g><g transform="translate(-6,-62) scale(1,1)"><g><path fill="none" stroke="none"/><text fill="#000000" stroke="none" font-family="Arial" font-size="13px" font-style="normal" font-weight="bold" text-decoration="none" x="511.149658203125" y="853">Sélection exercice favoris</text></g></g><g transform="translate(-6,-62) scale(1,1)"><path fill="#C0C0C0" stroke="none" d="M 471 918.5 C 471 901.1030288 533.680128 887 611 887 C 688.319872 887 751 901.1030288 751 918.5 C 751 935.8969712 688.319872 950 611 950 C 533.680128 950 471 935.8969712 471 918.5 Z" opacity="0.2"/></g><g transform="translate(-6,-62) scale(1,1)"><path fill="#ffffff" stroke="none" d="M 464 911.5 C 464 894.1030288 526.680128 880 604 880 C 681.319872 880 744 894.1030288 744 911.5 C 744 928.8969712 681.319872 943 604 943 C 526.680128 943 464 928.8969712 464 911.5 Z"/></g><g transform="translate(-6,-62) scale(1,1)"><path fill="none" stroke="#000000" d="M 464 911.5 C 464 894.1030288 526.680128 880 604 880 C 681.319872 880 744 894.1030288 744 911.5 C 744 928.8969712 681.319872 943 604 943 C 526.680128 943 464 928.8969712 464 911.5 Z" stroke-miterlimit="10"/></g><g transform="translate(-6,-62) scale(1,1)"><g><path fill="none" stroke="none"/><text fill="#000000" stroke="none" font-family="Arial" font-size="13px" font-style="normal" font-weight="bold" text-decoration="none" x="509.359619140625" y="917">Sélection entrainement favoris</text></g></g><g transform="translate(-6,-62) scale(1,1)"><path fill="none" stroke="#000000" d="M 107 637 L 253 859" stroke-miterlimit="10"/></g><g transform="translate(-6,-62) scale(1,1)"><path fill="#C0C0C0" stroke="none" d="M 799 314 C 799 298.5360256 845.3385232 286 902.5 286 C 959.6614768 286 1006 298.5360256 1006 314 C 1006 329.4639744 959.6614768 342 902.5 342 C 845.3385232 342 799 329.4639744 799 314 Z" opacity="0.2"/></g><g transform="translate(-6,-62) scale(1,1)"><path fill="#ffffff" stroke="none" d="M 792 307 C 792 291.5360256 838.3385232 279 895.5 279 C 952.6614768 279 999 291.5360256 999 307 C 999 322.4639744 952.6614768 335 895.5 335 C 838.3385232 335 792 322.4639744 792 307 Z"/></g><g transform="translate(-6,-62) scale(1,1)"><path fill="none" stroke="#000000" d="M 792 307 C 792 291.5360256 838.3385232 279 895.5 279 C 952.6614768 279 999 291.5360256 999 307 C 999 322.4639744 952.6614768 335 895.5 335 C 838.3385232 335 792 322.4639744 792 307 Z" stroke-miterlimit="10"/></g><g transform="translate(-6,-62) scale(1,1)"><g><path fill="none" stroke="none"/><text fill="#000000" stroke="none" font-family="Arial" font-size="13px" font-style="normal" font-weight="bold" text-decoration="none" x="848.181396484375" y="312.5">Partie du corps</text></g></g><g transform="translate(-6,-62) scale(1,1)"><path fill="#C0C0C0" stroke="none" d="M 1023 314 C 1023 298.5360256 1069.3385232 286 1126.5 286 C 1183.6614768 286 1230 298.5360256 1230 314 C 1230 329.4639744 1183.6614768 342 1126.5 342 C 1069.3385232 342 1023 329.4639744 1023 314 Z" opacity="0.2"/></g><g transform="translate(-6,-62) scale(1,1)"><path fill="#ffffff" stroke="none" d="M 1016 307 C 1016 291.5360256 1062.3385232 279 1119.5 279 C 1176.6614768 279 1223 291.5360256 1223 307 C 1223 322.4639744 1176.6614768 335 1119.5 335 C 1062.3385232 335 1016 322.4639744 1016 307 Z"/></g><g transform="translate(-6,-62) scale(1,1)"><path fill="none" stroke="#000000" d="M 1016 307 C 1016 291.5360256 1062.3385232 279 1119.5 279 C 1176.6614768 279 1223 291.5360256 1223 307 C 1223 322.4639744 1176.6614768 335 1119.5 335 C 1062.3385232 335 1016 322.4639744 1016 307 Z" stroke-miterlimit="10"/></g><g transform="translate(-6,-62) scale(1,1)"><g><path fill="none" stroke="none"/><text fill="#000000" stroke="none" font-family="Arial" font-size="13px" font-style="normal" font-weight="bold" text-decoration="none" x="1091.694091796875" y="312.5">DIfficulté</text></g></g><g transform="translate(-6,-62) scale(1,1)"><path fill="#C0C0C0" stroke="none" d="M 1247 314 C 1247 298.5360256 1293.3385232 286 1350.5 286 C 1407.6614768 286 1454 298.5360256 1454 314 C 1454 329.4639744 1407.6614768 342 1350.5 342 C 1293.3385232 342 1247 329.4639744 1247 314 Z" opacity="0.2"/></g><g transform="translate(-6,-62) scale(1,1)"><path fill="#ffffff" stroke="none" d="M 1240 307 C 1240 291.5360256 1286.3385232 279 1343.5 279 C 1400.6614768 279 1447 291.5360256 1447 307 C 1447 322.4639744 1400.6614768 335 1343.5 335 C 1286.3385232 335 1240 322.4639744 1240 307 Z"/></g><g transform="translate(-6,-62) scale(1,1)"><path fill="none" stroke="#000000" d="M 1240 307 C 1240 291.5360256 1286.3385232 279 1343.5 279 C 1400.6614768 279 1447 291.5360256 1447 307 C 1447 322.4639744 1400.6614768 335 1343.5 335 C 1286.3385232 335 1240 322.4639744 1240 307 Z" stroke-miterlimit="10"/></g><g transform="translate(-6,-62) scale(1,1)"><g><path fill="none" stroke="none"/><text fill="#000000" stroke="none" font-family="Arial" font-size="13px" font-style="normal" font-weight="bold" text-decoration="none" x="1323.031982421875" y="312.5">Temps</text></g></g><g transform="translate(-6,-62) scale(1,1)"><path fill="#C0C0C0" stroke="none" d="M 727 554.5 C 727 539.312168 773.3385232 527 830.5 527 C 887.6614768 527 934 539.312168 934 554.5 C 934 569.687832 887.6614768 582 830.5 582 C 773.3385232 582 727 569.687832 727 554.5 Z" opacity="0.2"/></g><g transform="translate(-6,-62) scale(1,1)"><path fill="#ffffff" stroke="none" d="M 720 547.5 C 720 532.312168 766.3385232 520 823.5 520 C 880.6614768 520 927 532.312168 927 547.5 C 927 562.687832 880.6614768 575 823.5 575 C 766.3385232 575 720 562.687832 720 547.5 Z"/></g><g transform="translate(-6,-62) scale(1,1)"><path fill="none" stroke="#000000" d="M 720 547.5 C 720 532.312168 766.3385232 520 823.5 520 C 880.6614768 520 927 532.312168 927 547.5 C 927 562.687832 880.6614768 575 823.5 575 C 766.3385232 575 720 562.687832 720 547.5 Z" stroke-miterlimit="10"/></g><g transform="translate(-6,-62) scale(1,1)"><g><path fill="none" stroke="none"/><text fill="#000000" stroke="none" font-family="Arial" font-size="13px" font-style="normal" font-weight="bold" text-decoration="none" x="776.181396484375" y="553">Partie du corps</text></g></g><g transform="translate(-6,-62) scale(1,1)"><path fill="#C0C0C0" stroke="none" d="M 935 554.5 C 935 539.312168 981.3385232 527 1038.5 527 C 1095.6614768 527 1142 539.312168 1142 554.5 C 1142 569.687832 1095.6614768 582 1038.5 582 C 981.3385232 582 935 569.687832 935 554.5 Z" opacity="0.2"/></g><g transform="translate(-6,-62) scale(1,1)"><path fill="#ffffff" stroke="none" d="M 928 547.5 C 928 532.312168 974.3385232 520 1031.5 520 C 1088.6614768 520 1135 532.312168 1135 547.5 C 1135 562.687832 1088.6614768 575 1031.5 575 C 974.3385232 575 928 562.687832 928 547.5 Z"/></g><g transform="translate(-6,-62) scale(1,1)"><path fill="none" stroke="#000000" d="M 928 547.5 C 928 532.312168 974.3385232 520 1031.5 520 C 1088.6614768 520 1135 532.312168 1135 547.5 C 1135 562.687832 1088.6614768 575 1031.5 575 C 974.3385232 575 928 562.687832 928 547.5 Z" stroke-miterlimit="10"/></g><g transform="translate(-6,-62) scale(1,1)"><g><path fill="none" stroke="none"/><text fill="#000000" stroke="none" font-family="Arial" font-size="13px" font-style="normal" font-weight="bold" text-decoration="none" x="1003.694091796875" y="553">Difficulté</text></g></g><g transform="translate(-6,-62) scale(1,1)"><path fill="#C0C0C0" stroke="none" d="M 951 398.5 C 951 381.1030288 1013.0085552 367 1089.5 367 C 1165.9914448 367 1228 381.1030288 1228 398.5 C 1228 415.8969712 1165.9914448 430 1089.5 430 C 1013.0085552 430 951 415.8969712 951 398.5 Z" opacity="0.2"/></g><g transform="translate(-6,-62) scale(1,1)"><path fill="#ffffff" stroke="none" d="M 944 391.5 C 944 374.1030288 1006.0085552 360 1082.5 360 C 1158.9914448 360 1221 374.1030288 1221 391.5 C 1221 408.8969712 1158.9914448 423 1082.5 423 C 1006.0085552 423 944 408.8969712 944 391.5 Z"/></g><g transform="translate(-6,-62) scale(1,1)"><path fill="none" stroke="#000000" d="M 944 391.5 C 944 374.1030288 1006.0085552 360 1082.5 360 C 1158.9914448 360 1221 374.1030288 1221 391.5 C 1221 408.8969712 1158.9914448 423 1082.5 423 C 1006.0085552 423 944 408.8969712 944 391.5 Z" stroke-miterlimit="10"/></g><g transform="translate(-6,-62) scale(1,1)"><g><path fill="none" stroke="none"/><text fill="#000000" stroke="none" font-family="Arial" font-size="13px" font-style="normal" font-weight="bold" text-decoration="none" x="988.92919921875" y="397">Appercu de tous les exercices</text></g></g><g transform="translate(-6,-62) scale(1,1)"><path fill="#C0C0C0" stroke="none" d="M 1231 406.5 C 1231 389.1030288 1281.1441024 375 1343 375 C 1404.8558976 375 1455 389.1030288 1455 406.5 C 1455 423.8969712 1404.8558976 438 1343 438 C 1281.1441024 438 1231 423.8969712 1231 406.5 Z" opacity="0.2"/></g><g transform="translate(-6,-62) scale(1,1)"><path fill="#ffffff" stroke="none" d="M 1224 399.5 C 1224 382.1030288 1274.1441024 368 1336 368 C 1397.8558976 368 1448 382.1030288 1448 399.5 C 1448 416.8969712 1397.8558976 431 1336 431 C 1274.1441024 431 1224 416.8969712 1224 399.5 Z"/></g><g transform="translate(-6,-62) scale(1,1)"><path fill="none" stroke="#000000" d="M 1224 399.5 C 1224 382.1030288 1274.1441024 368 1336 368 C 1397.8558976 368 1448 382.1030288 1448 399.5 C 1448 416.8969712 1397.8558976 431 1336 431 C 1274.1441024 431 1224 416.8969712 1224 399.5 Z" stroke-miterlimit="10"/></g><g transform="translate(-6,-62) scale(1,1)"><g><path fill="none" stroke="none"/><text fill="#000000" stroke="none" font-family="Arial" font-size="13px" font-style="normal" font-weight="bold" text-decoration="none" x="1261.119873046875" y="405">Démarrer l'entrainement</text></g></g><g transform="translate(-6,-62) scale(1,1)"><path fill="#C0C0C0" stroke="none" d="M 1543 386.5 C 1543 371.312168 1583.9659408 359 1634.5 359 C 1685.0340592 359 1726 371.312168 1726 386.5 C 1726 401.687832 1685.0340592 414 1634.5 414 C 1583.9659408 414 1543 401.687832 1543 386.5 Z" opacity="0.2"/></g><g transform="translate(-6,-62) scale(1,1)"><path fill="#ffffff" stroke="none" d="M 1536 379.5 C 1536 364.312168 1576.9659408 352 1627.5 352 C 1678.0340592 352 1719 364.312168 1719 379.5 C 1719 394.687832 1678.0340592 407 1627.5 407 C 1576.9659408 407 1536 394.687832 1536 379.5 Z"/></g><g transform="translate(-6,-62) scale(1,1)"><path fill="none" stroke="#000000" d="M 1536 379.5 C 1536 364.312168 1576.9659408 352 1627.5 352 C 1678.0340592 352 1719 364.312168 1719 379.5 C 1719 394.687832 1678.0340592 407 1627.5 407 C 1576.9659408 407 1536 394.687832 1536 379.5 Z" stroke-miterlimit="10"/></g><g transform="translate(-6,-62) scale(1,1)"><g><path fill="none" stroke="none"/><text fill="#000000" stroke="none" font-family="Arial" font-size="13px" font-style="normal" font-weight="bold" text-decoration="none" x="1575.50634765625" y="385">Début du chrono</text></g></g><g transform="translate(-6,-62) scale(1,1)"><path fill="#C0C0C0" stroke="none" d="M 743 782.5 C 743 769.5213072 806.5755584 759 885 759 C 963.4244416 759 1027 769.5213072 1027 782.5 C 1027 795.4786928 963.4244416 806 885 806 C 806.5755584 806 743 795.4786928 743 782.5 Z" opacity="0.2"/></g><g transform="translate(-6,-62) scale(1,1)"><path fill="#ffffff" stroke="none" d="M 736 775.5 C 736 762.5213072 799.5755584 752 878 752 C 956.4244416 752 1020 762.5213072 1020 775.5 C 1020 788.4786928 956.4244416 799 878 799 C 799.5755584 799 736 788.4786928 736 775.5 Z"/></g><g transform="translate(-6,-62) scale(1,1)"><path fill="none" stroke="#000000" d="M 736 775.5 C 736 762.5213072 799.5755584 752 878 752 C 956.4244416 752 1020 762.5213072 1020 775.5 C 1020 788.4786928 956.4244416 799 878 799 C 799.5755584 799 736 788.4786928 736 775.5 Z" stroke-miterlimit="10"/></g><g transform="translate(-6,-62) scale(1,1)"><g><path fill="none" stroke="none"/><text fill="#000000" stroke="none" font-family="Arial" font-size="13px" font-style="normal" font-weight="bold" text-decoration="none" x="811.060791015625" y="781">Appercu de l'exercice</text></g></g><g transform="translate(-6,-62) scale(1,1)"><path fill="none" stroke="#000000" d="M 1449 391 L 1535 385" stroke-miterlimit="10" stroke-dasharray="3"/></g><g transform="translate(-6,-62) scale(1,1)"><path fill="none" stroke="#000000" d="M 1525.1549437273907 389.90661461591975 L 1535 385 L 1524.568993480889 381.50799441606074" stroke-miterlimit="10"/></g><g transform="translate(-6,-62) scale(1,1)"><g><path fill="none" stroke="none"/><text fill="#000000" stroke="none" font-family="Arial" font-size="13px" font-style="normal" font-weight="normal" text-decoration="none" x="1461.5" y="363">«include»</text></g></g><g transform="translate(-6,-62) scale(1,1)"><path fill="none" stroke="#000000" d="M 1296 432 L 907 751" stroke-miterlimit="10" stroke-dasharray="3"/></g><g transform="translate(-6,-62) scale(1,1)"><path fill="none" stroke="#000000" d="M 912.1890016793398 741.3008112931128 L 907 751 L 917.5275403816975 747.8108161684016" stroke-miterlimit="10"/></g><g transform="translate(-6,-62) scale(1,1)"><g><path fill="none" stroke="none"/><text fill="#000000" stroke="none" font-family="Arial" font-size="13px" font-style="normal" font-weight="normal" text-decoration="none" x="1092.5" y="619">«include»</text></g></g><g transform="translate(-6,-62) scale(1,1)"><path fill="#C0C0C0" stroke="none" d="M 759 670.5 C 759 648.6847504 799.9659408 631 850.5 631 C 901.0340592 631 942 648.6847504 942 670.5 C 942 692.3152496 901.0340592 710 850.5 710 C 799.9659408 710 759 692.3152496 759 670.5 Z" opacity="0.2"/></g><g transform="translate(-6,-62) scale(1,1)"><path fill="#ffffff" stroke="none" d="M 752 663.5 C 752 641.6847504 792.9659408 624 843.5 624 C 894.0340592 624 935 641.6847504 935 663.5 C 935 685.3152496 894.0340592 703 843.5 703 C 792.9659408 703 752 685.3152496 752 663.5 Z"/></g><g transform="translate(-6,-62) scale(1,1)"><path fill="none" stroke="#000000" d="M 752 663.5 C 752 641.6847504 792.9659408 624 843.5 624 C 894.0340592 624 935 641.6847504 935 663.5 C 935 685.3152496 894.0340592 703 843.5 703 C 792.9659408 703 752 685.3152496 752 663.5 Z" stroke-miterlimit="10"/></g><g transform="translate(-6,-62) scale(1,1)"><g><path fill="none" stroke="none"/><text fill="#000000" stroke="none" font-family="Arial" font-size="13px" font-style="normal" font-weight="bold" text-decoration="none" x="790.766845703125" y="669">Ajout aux favoris</text></g></g><g transform="translate(-6,-62) scale(1,1)"><path fill="#C0C0C0" stroke="none" d="M 759 399 C 759 381.3268864 798.8466528 367 848 367 C 897.1533472 367 937 381.3268864 937 399 C 937 416.6731136 897.1533472 431 848 431 C 798.8466528 431 759 416.6731136 759 399 Z" opacity="0.2"/></g><g transform="translate(-6,-62) scale(1,1)"><path fill="#ffffff" stroke="none" d="M 752 392 C 752 374.3268864 791.8466528 360 841 360 C 890.1533472 360 930 374.3268864 930 392 C 930 409.6731136 890.1533472 424 841 424 C 791.8466528 424 752 409.6731136 752 392 Z"/></g><g transform="translate(-6,-62) scale(1,1)"><path fill="none" stroke="#000000" d="M 752 392 C 752 374.3268864 791.8466528 360 841 360 C 890.1533472 360 930 374.3268864 930 392 C 930 409.6731136 890.1533472 424 841 424 C 791.8466528 424 752 409.6731136 752 392 Z" stroke-miterlimit="10"/></g><g transform="translate(-6,-62) scale(1,1)"><g><path fill="none" stroke="none"/><text fill="#000000" stroke="none" font-family="Arial" font-size="13px" font-style="normal" font-weight="bold" text-decoration="none" x="788.266845703125" y="397.5">Ajout aux favoris</text></g></g><g transform="translate(-6,-62) scale(1,1)"><path fill="none" stroke="#000000" d="M 592 815 L 597 713" stroke-miterlimit="10" stroke-dasharray="3"/></g><g transform="translate(-6,-62) scale(1,1)"><path fill="none" stroke="#000000" d="M 600.7068964007469 723.3565881966084 L 597 713 L 592.2979578383457 722.9443853259025" stroke-miterlimit="10"/></g><g transform="translate(-6,-62) scale(1,1)"><g><path fill="none" stroke="none"/><text fill="#000000" stroke="none" font-family="Arial" font-size="13px" font-style="normal" font-weight="normal" text-decoration="none" x="536.5" y="767">«include»</text></g></g><g transform="translate(-6,-62) scale(1,1)"><path fill="none" stroke="#000000" d="M 751 402 L 720 405" stroke-miterlimit="10"/></g><g transform="translate(-6,-62) scale(1,1)"><path fill="#FFFFFF" stroke="none" d="M 739.4198802973928 394.66228994240333 L 720 405 L 741.0417939317845 411.4220641644505"/></g><g transform="translate(-6,-62) scale(1,1)"><path fill="none" stroke="#000000" d="M 739.4198802973928 394.66228994240333 L 720 405 L 741.0417939317845 411.4220641644505 L 739.4198802973928 394.66228994240333" stroke-miterlimit="10"/></g><g transform="translate(-6,-62) scale(1,1)"><path fill="none" stroke="#000000" d="M 686 710 L 807 751" stroke-miterlimit="10" stroke-dasharray="3"/></g><g transform="translate(-6,-62) scale(1,1)"><path fill="none" stroke="#000000" d="M 796.02394790632 751.7254518845672 L 807 751 L 798.7257871869 743.751731080904" stroke-miterlimit="10"/></g><g transform="translate(-6,-62) scale(1,1)"><g><path fill="none" stroke="none"/><text fill="#000000" stroke="none" font-family="Arial" font-size="13px" font-style="normal" font-weight="normal" text-decoration="none" x="775.5" y="731">«include»</text></g></g><g transform="translate(-6,-62) scale(1,1)"><path fill="none" stroke="#000000" d="M 745 911 L 1344 912 L 1344 536 L 720 435" stroke-miterlimit="10" stroke-dasharray="3"/></g><g transform="translate(-6,-62) scale(1,1)"><path fill="none" stroke="#000000" d="M 730.704706937938 432.46835046405295 L 720 435 L 729.3595174208866 440.77922431197476" stroke-miterlimit="10"/></g><g transform="translate(-6,-62) scale(1,1)"><g><path fill="none" stroke="none"/><text fill="#000000" stroke="none" font-family="Arial" font-size="13px" font-style="normal" font-weight="normal" text-decoration="none" x="1286.5" y="728">«include»</text></g></g><g transform="translate(-6,-62) scale(1,1)"><path fill="none" stroke="#000000" d="M 1058 424 L 1040 448 L 720 425" stroke-miterlimit="10" stroke-dasharray="3"/></g><g transform="translate(-6,-62) scale(1,1)"><path fill="none" stroke="#000000" d="M 730.4383064513905 421.52987630957364 L 720 425 L 729.8347452689381 429.92724928282496" stroke-miterlimit="10"/></g><g transform="translate(-6,-62) scale(1,1)"><g><path fill="none" stroke="none"/><text fill="#000000" stroke="none" font-family="Arial" font-size="13px" font-style="normal" font-weight="normal" text-decoration="none" x="943.5" y="459">«include»</text></g></g><g transform="translate(-6,-62) scale(1,1)"><path fill="none" stroke="#000000" d="M 511 533 L 426 538" stroke-miterlimit="10" stroke-dasharray="3"/></g><g transform="translate(-6,-62) scale(1,1)"><path fill="none" stroke="#000000" d="M 435.8979464792022 533.200973484669 L 426 538 L 436.3923292673499 541.6054808831808" stroke-miterlimit="10"/></g><g transform="translate(-6,-62) scale(1,1)"><g><path fill="none" stroke="none"/><text fill="#000000" stroke="none" font-family="Arial" font-size="13px" font-style="normal" font-weight="normal" text-decoration="none" x="443.5" y="569">«extend»</text></g></g><g transform="translate(-6,-62) scale(1,1)"><path fill="none" stroke="#000000" d="M 511 588 L 426 573" stroke-miterlimit="10" stroke-dasharray="3"/></g><g transform="translate(-6,-62) scale(1,1)"><path fill="none" stroke="#000000" d="M 436.739587562226 570.6206599668645 L 426 573 L 435.2764826645754 578.911587720218" stroke-miterlimit="10"/></g><g transform="translate(-6,-62) scale(1,1)"><g><path fill="none" stroke="none"/><text fill="#000000" stroke="none" font-family="Arial" font-size="13px" font-style="normal" font-weight="normal" text-decoration="none" x="436.5" y="614">«extend»</text></g></g><g transform="translate(-6,-62) scale(1,1)"><path fill="none" stroke="#000000" d="M 520 647 L 377 587" stroke-miterlimit="10" stroke-dasharray="3"/></g><g transform="translate(-6,-62) scale(1,1)"><path fill="none" stroke="#000000" d="M 387.99988502304984 587.0502939328726 L 377 587 L 384.7425301110841 594.8136564730577" stroke-miterlimit="10"/></g><g transform="translate(-6,-62) scale(1,1)"><g><path fill="none" stroke="none"/><text fill="#000000" stroke="none" font-family="Arial" font-size="13px" font-style="normal" font-weight="normal" text-decoration="none" x="409.5" y="649">«extend»</text></g></g><g transform="translate(-6,-62) scale(1,1)"><path fill="none" stroke="#000000" d="M 824 576 L 824 600 L 681 603" stroke-miterlimit="10" stroke-dasharray="3"/></g><g transform="translate(-6,-62) scale(1,1)"><path fill="none" stroke="#000000" d="M 691.0721470668684 598.5782522162189 L 681 603 L 691.2487313346991 606.9954356494826" stroke-miterlimit="10"/></g><g transform="translate(-6,-62) scale(1,1)"><g><path fill="none" stroke="none"/><text fill="#000000" stroke="none" font-family="Arial" font-size="13px" font-style="normal" font-weight="normal" text-decoration="none" x="797.5" y="634">«extend»</text></g></g><g transform="translate(-6,-62) scale(1,1)"><path fill="none" stroke="#000000" d="M 1032 576 L 1032 600 L 681 603" stroke-miterlimit="10" stroke-dasharray="3"/></g><g transform="translate(-6,-62) scale(1,1)"><path fill="none" stroke="#000000" d="M 691.1263262092134 598.7037786946438 L 681 603 L 691.1982811495374 607.1225067125464" stroke-miterlimit="10"/></g><g transform="translate(-6,-62) scale(1,1)"><g><path fill="none" stroke="none"/><text fill="#000000" stroke="none" font-family="Arial" font-size="13px" font-style="normal" font-weight="normal" text-decoration="none" x="1005.5" y="634">«extend»</text></g></g><g transform="translate(-6,-62) scale(1,1)"><path fill="none" stroke="#000000" d="M 751 669 L 686 674" stroke-miterlimit="10" stroke-dasharray="3"/></g><g transform="translate(-6,-62) scale(1,1)"><path fill="none" stroke="#000000" d="M 695.8098852776087 669.023439858682 L 686 674 L 696.4555958253678 677.4176769795506" stroke-miterlimit="10"/></g><g transform="translate(-6,-62) scale(1,1)"><g><path fill="none" stroke="none"/><text fill="#000000" stroke="none" font-family="Arial" font-size="13px" font-style="normal" font-weight="normal" text-decoration="none" x="711.5" y="690">«extend»</text></g></g><g transform="translate(-6,-62) scale(1,1)"><path fill="none" stroke="#000000" d="M 463 906 L 426 905" stroke-miterlimit="10" stroke-dasharray="3"/></g><g transform="translate(-6,-62) scale(1,1)"><path fill="none" stroke="#000000" d="M 436.27269439553993 901.0665854711406 L 426 905 L 436.04523595471755 909.4825477815691" stroke-miterlimit="10"/></g><g transform="translate(-6,-62) scale(1,1)"><g><path fill="none" stroke="none"/><text fill="#000000" stroke="none" font-family="Arial" font-size="13px" font-style="normal" font-weight="normal" text-decoration="none" x="416.5" y="940">«extend»</text></g></g><g transform="translate(-6,-62) scale(1,1)"><path fill="none" stroke="#000000" d="M 471 867 L 426 875" stroke-miterlimit="10" stroke-dasharray="3"/></g><g transform="translate(-6,-62) scale(1,1)"><path fill="none" stroke="#000000" d="M 435.2689827132472 869.076659771588 L 426 875 L 436.7425945740232 877.3657264884528" stroke-miterlimit="10"/></g><g transform="translate(-6,-62) scale(1,1)"><g><path fill="none" stroke="none"/><text fill="#000000" stroke="none" font-family="Arial" font-size="13px" font-style="normal" font-weight="normal" text-decoration="none" x="399.5" y="858">«extend»</text></g></g><g transform="translate(-6,-62) scale(1,1)"><path fill="none" stroke="#000000" d="M 1286 432 L 1200 488 L 720 430" stroke-miterlimit="10" stroke-dasharray="3"/></g><g transform="translate(-6,-62) scale(1,1)"><path fill="none" stroke="#000000" d="M 730.5942633871703 427.04000282377433 L 720 430 L 729.5843095583466 435.3982414071423" stroke-miterlimit="10"/></g><g transform="translate(-6,-62) scale(1,1)"><g><path fill="none" stroke="none"/><text fill="#000000" stroke="none" font-family="Arial" font-size="13px" font-style="normal" font-weight="normal" text-decoration="none" x="1135.5" y="466">«extend»</text></g></g><g transform="translate(-6,-62) scale(1,1)"><path fill="none" stroke="#000000" d="M 503 401 L 426 390" stroke-miterlimit="10" stroke-dasharray="3"/></g><g transform="translate(-6,-62) scale(1,1)"><path fill="none" stroke="#000000" d="M 436.6558505397089 387.2700092902383 L 426 390 L 435.46521911938726 395.60442923248974" stroke-miterlimit="10"/></g><g transform="translate(-6,-62) scale(1,1)"><g><path fill="none" stroke="none"/><text fill="#000000" stroke="none" font-family="Arial" font-size="13px" font-style="normal" font-weight="normal" text-decoration="none" x="433.5" y="429">«extend»</text></g></g><g transform="translate(-6,-62) scale(1,1)"><path fill="none" stroke="#000000" d="M 503 346 L 426 354" stroke-miterlimit="10" stroke-dasharray="3"/></g><g transform="translate(-6,-62) scale(1,1)"><path fill="none" stroke="#000000" d="M 435.67325400950807 348.7628102127633 L 426 354 L 436.5432759191791 357.13677109334714" stroke-miterlimit="10"/></g><g transform="translate(-6,-62) scale(1,1)"><g><path fill="none" stroke="none"/><text fill="#000000" stroke="none" font-family="Arial" font-size="13px" font-style="normal" font-weight="normal" text-decoration="none" x="440.5" y="384">«extend»</text></g></g><g transform="translate(-6,-62) scale(1,1)"><path fill="none" stroke="#000000" d="M 503 290 L 396 328" stroke-miterlimit="10" stroke-dasharray="3"/></g><g transform="translate(-6,-62) scale(1,1)"><path fill="none" stroke="#000000" d="M 404.16791021478826 320.6321480251597 L 396 328 L 406.9854427951879 328.5657266068114" stroke-miterlimit="10"/></g><g transform="translate(-6,-62) scale(1,1)"><g><path fill="none" stroke="none"/><text fill="#000000" stroke="none" font-family="Arial" font-size="13px" font-style="normal" font-weight="normal" text-decoration="none" x="432.5" y="342">«extend»</text></g></g><g transform="translate(-6,-62) scale(1,1)"><path fill="none" stroke="#000000" d="M 896 278 L 896 256 L 689 257" stroke-miterlimit="10" stroke-dasharray="3"/></g><g transform="translate(-6,-62) scale(1,1)"><path fill="none" stroke="#000000" d="M 699.1422206753505 252.74143688875063 L 689 257 L 699.182891869906 261.1603741617554" stroke-miterlimit="10"/></g><g transform="translate(-6,-62) scale(1,1)"><g><path fill="none" stroke="none"/><text fill="#000000" stroke="none" font-family="Arial" font-size="13px" font-style="normal" font-weight="normal" text-decoration="none" x="869.5" y="290">«extend»</text></g></g><g transform="translate(-6,-62) scale(1,1)"><path fill="none" stroke="#000000" d="M 1120 278 L 1120 256 L 689 257" stroke-miterlimit="10" stroke-dasharray="3"/></g><g transform="translate(-6,-62) scale(1,1)"><path fill="none" stroke="#000000" d="M 699.1528806673133 252.76691434585868 L 689 257 L 699.1724143398218 261.18592719704816" stroke-miterlimit="10"/></g><g transform="translate(-6,-62) scale(1,1)"><g><path fill="none" stroke="none"/><text fill="#000000" stroke="none" font-family="Arial" font-size="13px" font-style="normal" font-weight="normal" text-decoration="none" x="1093.5" y="290">«extend»</text></g></g><g transform="translate(-6,-62) scale(1,1)"><path fill="none" stroke="#000000" d="M 1344 278 L 1344 256 L 689 257" stroke-miterlimit="10" stroke-dasharray="3"/></g><g transform="translate(-6,-62) scale(1,1)"><path fill="none" stroke="#000000" d="M 699.15623627655 252.77497163383592 L 689 257 L 699.1690897509014 261.1939973340611" stroke-miterlimit="10"/></g><g transform="translate(-6,-62) scale(1,1)"><g><path fill="none" stroke="none"/><text fill="#000000" stroke="none" font-family="Arial" font-size="13px" font-style="normal" font-weight="normal" text-decoration="none" x="1317.5" y="290">«extend»</text></g></g></g></svg>